<svg xmlns="http://www.w3.org/2000/svg" width="255" height="255" viewBox="0 0 255 255"><defs><style>.a{fill:#1c9dd2;}</style></defs><g transform="translate(-779.528 -236.692)"><circle class="a" cx="2.2" cy="2.2" r="2.2" transform="translate(950.99 487.291)"/><circle class="a" cx="2.2" cy="2.2" r="2.2" transform="translate(937.801 487.291)"/><circle class="a" cx="2.2" cy="2.2" r="2.2" transform="translate(924.611 487.291)"/><circle class="a" cx="2.2" cy="2.2" r="2.2" transform="translate(911.422 487.291)"/><circle class="a" cx="2.2" cy="2.2" r="2.2" transform="translate(898.232 487.291)"/><circle class="a" cx="2.2" cy="2.2" r="2.2" transform="translate(885.043 487.291)"/><circle class="a" cx="2.2" cy="2.2" r="2.2" transform="translate(871.854 487.291)"/><circle class="a" cx="2.2" cy="2.2" r="2.2" transform="translate(977.369 474.095)"/><path class="a" d="M964.267,476.414a2.2,2.2,0,1,0,2.2-2.2A2.2,2.2,0,0,0,964.267,476.414Z" transform="translate(-0.087 -0.118)"/><circle class="a" cx="2.2" cy="2.2" r="2.2" transform="translate(950.99 474.095)"/><circle class="a" cx="2.2" cy="2.2" r="2.2" transform="translate(937.801 474.095)"/><circle class="a" cx="2.2" cy="2.2" r="2.2" transform="translate(924.611 474.095)"/><circle class="a" cx="2.2" cy="2.2" r="2.2" transform="translate(911.422 474.095)"/><circle class="a" cx="2.2" cy="2.2" r="2.2" transform="translate(898.232 474.095)"/><circle class="a" cx="2.2" cy="2.2" r="2.2" transform="translate(885.043 474.095)"/><circle class="a" cx="2.2" cy="2.2" r="2.2" transform="translate(871.854 474.095)"/><circle class="a" cx="2.2" cy="2.2" r="2.2" transform="translate(858.664 474.095)"/><circle class="a" cx="2.2" cy="2.2" r="2.2" transform="translate(845.475 474.095)"/><path class="a" d="M990.658,463.219a2.2,2.2,0,1,0,2.2-2.2A2.2,2.2,0,0,0,990.658,463.219Z" transform="translate(-0.118 -0.118)"/><path class="a" d="M977.462,463.219a2.2,2.2,0,1,0,2.2-2.2A2.2,2.2,0,0,0,977.462,463.219Z" transform="translate(-0.094 -0.118)"/><path class="a" d="M964.267,463.219a2.2,2.2,0,1,0,2.2-2.2A2.2,2.2,0,0,0,964.267,463.219Z" transform="translate(-0.087 -0.118)"/><path class="a" d="M951.071,463.219a2.2,2.2,0,1,0,2.2-2.2A2.2,2.2,0,0,0,951.071,463.219Z" transform="translate(-0.081 -0.118)"/><path class="a" d="M937.875,463.219a2.2,2.2,0,1,0,2.2-2.2A2.2,2.2,0,0,0,937.875,463.219Z" transform="translate(-0.075 -0.118)"/><path class="a" d="M924.68,463.219a2.2,2.2,0,1,0,2.2-2.2A2.2,2.2,0,0,0,924.68,463.219Z" transform="translate(-0.069 -0.118)"/><path class="a" d="M911.484,463.219a2.2,2.2,0,1,0,2.2-2.2A2.2,2.2,0,0,0,911.484,463.219Z" transform="translate(-0.062 -0.118)"/><path class="a" d="M898.289,463.219a2.2,2.2,0,1,0,2.2-2.2A2.2,2.2,0,0,0,898.289,463.219Z" transform="translate(-0.056 -0.118)"/><path class="a" d="M885.093,463.219a2.2,2.2,0,1,0,2.2-2.2A2.2,2.2,0,0,0,885.093,463.219Z" transform="translate(-0.05 -0.118)"/><path class="a" d="M871.9,463.219a2.2,2.2,0,1,0,2.2-2.2A2.2,2.2,0,0,0,871.9,463.219Z" transform="translate(-0.044 -0.118)"/><path class="a" d="M858.7,463.219a2.2,2.2,0,1,0,2.2-2.2A2.2,2.2,0,0,0,858.7,463.219Z" transform="translate(-0.037 -0.118)"/><path class="a" d="M845.506,463.219a2.2,2.2,0,1,0,2.2-2.2A2.2,2.2,0,0,0,845.506,463.219Z" transform="translate(-0.031 -0.118)"/><path class="a" d="M832.31,463.219a2.2,2.2,0,1,0,2.2-2.2A2.2,2.2,0,0,0,832.31,463.219Z" transform="translate(-0.025 -0.118)"/><path class="a" d="M819.115,463.219a2.2,2.2,0,1,0,2.2-2.2A2.2,2.2,0,0,0,819.115,463.219Z" transform="translate(0 -0.118)"/><circle class="a" cx="2.2" cy="2.2" r="2.2" transform="translate(1003.735 447.704)"/><circle class="a" cx="2.2" cy="2.2" r="2.2" transform="translate(990.54 447.704)"/><circle class="a" cx="2.2" cy="2.2" r="2.2" transform="translate(977.369 447.704)"/><path class="a" d="M964.267,450.023a2.2,2.2,0,1,0,2.2-2.2A2.2,2.2,0,0,0,964.267,450.023Z" transform="translate(-0.087 -0.118)"/><circle class="a" cx="2.2" cy="2.2" r="2.2" transform="translate(950.99 447.704)"/><circle class="a" cx="2.2" cy="2.2" r="2.2" transform="translate(937.801 447.704)"/><circle class="a" cx="2.2" cy="2.2" r="2.2" transform="translate(924.611 447.704)"/><circle class="a" cx="2.2" cy="2.2" r="2.2" transform="translate(911.422 447.704)"/><circle class="a" cx="2.2" cy="2.2" r="2.2" transform="translate(898.232 447.704)"/><circle class="a" cx="2.2" cy="2.2" r="2.2" transform="translate(885.043 447.704)"/><circle class="a" cx="2.2" cy="2.2" r="2.2" transform="translate(871.854 447.704)"/><circle class="a" cx="2.2" cy="2.2" r="2.2" transform="translate(858.664 447.704)"/><circle class="a" cx="2.2" cy="2.2" r="2.2" transform="translate(845.475 447.704)"/><circle class="a" cx="2.2" cy="2.2" r="2.2" transform="translate(832.285 447.704)"/><circle class="a" cx="2.2" cy="2.2" r="2.2" transform="translate(819.115 447.704)"/><path class="a" d="M805.919,450.023a2.2,2.2,0,1,0,2.2-2.2A2.2,2.2,0,0,0,805.919,450.023Z" transform="translate(0 -0.118)"/><circle class="a" cx="2.2" cy="2.2" r="2.2" transform="translate(1016.931 434.533)"/><circle class="a" cx="2.2" cy="2.2" r="2.2" transform="translate(1003.735 434.533)"/><circle class="a" cx="2.2" cy="2.2" r="2.2" transform="translate(990.54 434.533)"/><circle class="a" cx="2.2" cy="2.2" r="2.2" transform="translate(977.369 434.533)"/><path class="a" d="M964.267,436.827a2.2,2.2,0,1,0,2.2-2.2A2.2,2.2,0,0,0,964.267,436.827Z" transform="translate(-0.087 -0.094)"/><circle class="a" cx="2.2" cy="2.2" r="2.2" transform="translate(950.99 434.533)"/><circle class="a" cx="2.2" cy="2.2" r="2.2" transform="translate(937.801 434.533)"/><circle class="a" cx="2.2" cy="2.2" r="2.2" transform="translate(924.611 434.533)"/><circle class="a" cx="2.2" cy="2.2" r="2.2" transform="translate(911.422 434.533)"/><circle class="a" cx="2.2" cy="2.2" r="2.2" transform="translate(898.232 434.533)"/><circle class="a" cx="2.2" cy="2.2" r="2.2" transform="translate(885.043 434.533)"/><circle class="a" cx="2.2" cy="2.2" r="2.2" transform="translate(871.854 434.533)"/><circle class="a" cx="2.2" cy="2.2" r="2.2" transform="translate(858.664 434.533)"/><circle class="a" cx="2.2" cy="2.2" r="2.2" transform="translate(845.475 434.533)"/><circle class="a" cx="2.2" cy="2.2" r="2.2" transform="translate(832.285 434.533)"/><circle class="a" cx="2.2" cy="2.2" r="2.2" transform="translate(819.115 434.533)"/><path class="a" d="M805.919,436.827a2.2,2.2,0,1,0,2.2-2.2A2.2,2.2,0,0,0,805.919,436.827Z" transform="translate(0 -0.094)"/><circle class="a" cx="2.2" cy="2.2" r="2.2" transform="translate(1016.931 421.344)"/><circle class="a" cx="2.2" cy="2.2" r="2.2" transform="translate(1003.735 421.344)"/><circle class="a" cx="2.2" cy="2.2" r="2.2" transform="translate(990.54 421.344)"/><circle class="a" cx="2.2" cy="2.2" r="2.2" transform="translate(977.369 421.344)"/><path class="a" d="M964.267,423.632a2.2,2.2,0,1,0,2.2-2.2A2.2,2.2,0,0,0,964.267,423.632Z" transform="translate(-0.087 -0.087)"/><circle class="a" cx="2.2" cy="2.2" r="2.2" transform="translate(950.99 421.344)"/><circle class="a" cx="2.2" cy="2.2" r="2.2" transform="translate(937.801 421.344)"/><circle class="a" cx="2.2" cy="2.2" r="2.2" transform="translate(924.611 421.344)"/><circle class="a" cx="2.2" cy="2.2" r="2.2" transform="translate(911.422 421.344)"/><circle class="a" cx="2.2" cy="2.2" r="2.2" transform="translate(898.232 421.344)"/><circle class="a" cx="2.2" cy="2.2" r="2.2" transform="translate(885.043 421.344)"/><circle class="a" cx="2.2" cy="2.2" r="2.2" transform="translate(871.854 421.344)"/><circle class="a" cx="2.2" cy="2.2" r="2.2" transform="translate(858.664 421.344)"/><circle class="a" cx="2.2" cy="2.2" r="2.2" transform="translate(845.475 421.344)"/><circle class="a" cx="2.2" cy="2.2" r="2.2" transform="translate(832.285 421.344)"/><circle class="a" cx="2.2" cy="2.2" r="2.2" transform="translate(819.115 421.344)"/><path class="a" d="M805.919,423.632a2.2,2.2,0,1,0,2.2-2.2A2.2,2.2,0,0,0,805.919,423.632Z" transform="translate(0 -0.087)"/><circle class="a" cx="2.2" cy="2.2" r="2.2" transform="translate(792.723 421.344)"/><path class="a" d="M1030.245,410.436a2.2,2.2,0,1,0,2.2-2.2A2.2,2.2,0,0,0,1030.245,410.436Z" transform="translate(-0.118 -0.081)"/><circle class="a" cx="2.2" cy="2.2" r="2.2" transform="translate(1016.931 408.155)"/><circle class="a" cx="2.2" cy="2.2" r="2.2" transform="translate(1003.735 408.155)"/><circle class="a" cx="2.2" cy="2.2" r="2.2" transform="translate(990.54 408.155)"/><circle class="a" cx="2.2" cy="2.2" r="2.2" transform="translate(977.369 408.155)"/><path class="a" d="M964.267,410.436a2.2,2.2,0,1,0,2.2-2.2A2.2,2.2,0,0,0,964.267,410.436Z" transform="translate(-0.087 -0.081)"/><circle class="a" cx="2.2" cy="2.2" r="2.2" transform="translate(950.99 408.155)"/><circle class="a" cx="2.2" cy="2.2" r="2.2" transform="translate(937.801 408.155)"/><circle class="a" cx="2.2" cy="2.2" r="2.2" transform="translate(924.611 408.155)"/><circle class="a" cx="2.2" cy="2.2" r="2.2" transform="translate(911.422 408.155)"/><circle class="a" cx="2.2" cy="2.2" r="2.2" transform="translate(898.232 408.155)"/><circle class="a" cx="2.2" cy="2.2" r="2.2" transform="translate(885.043 408.155)"/><circle class="a" cx="2.2" cy="2.2" r="2.2" transform="translate(871.854 408.155)"/><circle class="a" cx="2.2" cy="2.2" r="2.2" transform="translate(858.664 408.155)"/><circle class="a" cx="2.2" cy="2.2" r="2.2" transform="translate(845.475 408.155)"/><circle class="a" cx="2.2" cy="2.2" r="2.2" transform="translate(832.285 408.155)"/><circle class="a" cx="2.2" cy="2.2" r="2.2" transform="translate(819.115 408.155)"/><path class="a" d="M805.919,410.436a2.2,2.2,0,1,0,2.2-2.2A2.2,2.2,0,0,0,805.919,410.436Z" transform="translate(0 -0.081)"/><circle class="a" cx="2.2" cy="2.2" r="2.2" transform="translate(792.723 408.155)"/><path class="a" d="M1030.245,397.24a2.2,2.2,0,1,0,2.2-2.2A2.2,2.2,0,0,0,1030.245,397.24Z" transform="translate(-0.118 -0.075)"/><circle class="a" cx="2.2" cy="2.2" r="2.2" transform="translate(1016.931 394.965)"/><circle class="a" cx="2.2" cy="2.2" r="2.2" transform="translate(1003.735 394.965)"/><circle class="a" cx="2.2" cy="2.2" r="2.2" transform="translate(990.54 394.965)"/><circle class="a" cx="2.2" cy="2.2" r="2.2" transform="translate(977.369 394.965)"/><path class="a" d="M964.267,397.24a2.2,2.2,0,1,0,2.2-2.2A2.2,2.2,0,0,0,964.267,397.24Z" transform="translate(-0.087 -0.075)"/><circle class="a" cx="2.2" cy="2.2" r="2.2" transform="translate(950.99 394.965)"/><circle class="a" cx="2.2" cy="2.2" r="2.2" transform="translate(937.801 394.965)"/><circle class="a" cx="2.2" cy="2.2" r="2.2" transform="translate(924.611 394.965)"/><circle class="a" cx="2.2" cy="2.2" r="2.2" transform="translate(911.422 394.965)"/><circle class="a" cx="2.2" cy="2.2" r="2.2" transform="translate(898.232 394.965)"/><circle class="a" cx="2.2" cy="2.2" r="2.2" transform="translate(885.043 394.965)"/><circle class="a" cx="2.2" cy="2.2" r="2.2" transform="translate(871.854 394.965)"/><circle class="a" cx="2.2" cy="2.2" r="2.2" transform="translate(858.664 394.965)"/><circle class="a" cx="2.2" cy="2.2" r="2.2" transform="translate(845.475 394.965)"/><circle class="a" cx="2.2" cy="2.2" r="2.2" transform="translate(832.285 394.965)"/><circle class="a" cx="2.2" cy="2.2" r="2.2" transform="translate(819.115 394.965)"/><path class="a" d="M805.919,397.24a2.2,2.2,0,1,0,2.2-2.2A2.2,2.2,0,0,0,805.919,397.24Z" transform="translate(0 -0.075)"/><circle class="a" cx="2.2" cy="2.2" r="2.2" transform="translate(792.723 394.965)"/><circle class="a" cx="2.2" cy="2.2" r="2.2" transform="translate(779.528 394.965)"/><path class="a" d="M1030.245,384.045a2.2,2.2,0,1,0,2.2-2.2A2.2,2.2,0,0,0,1030.245,384.045Z" transform="translate(-0.118 -0.069)"/><circle class="a" cx="2.2" cy="2.2" r="2.2" transform="translate(1016.931 381.776)"/><circle class="a" cx="2.2" cy="2.2" r="2.2" transform="translate(1003.735 381.776)"/><circle class="a" cx="2.2" cy="2.2" r="2.2" transform="translate(990.54 381.776)"/><circle class="a" cx="2.2" cy="2.2" r="2.2" transform="translate(977.369 381.776)"/><path class="a" d="M964.267,384.045a2.2,2.2,0,1,0,2.2-2.2A2.2,2.2,0,0,0,964.267,384.045Z" transform="translate(-0.087 -0.069)"/><circle class="a" cx="2.2" cy="2.2" r="2.2" transform="translate(950.99 381.776)"/><circle class="a" cx="2.2" cy="2.2" r="2.2" transform="translate(937.801 381.776)"/><circle class="a" cx="2.2" cy="2.2" r="2.2" transform="translate(924.611 381.776)"/><circle class="a" cx="2.2" cy="2.2" r="2.2" transform="translate(911.422 381.776)"/><circle class="a" cx="2.2" cy="2.2" r="2.2" transform="translate(898.232 381.776)"/><circle class="a" cx="2.2" cy="2.2" r="2.2" transform="translate(885.043 381.776)"/><circle class="a" cx="2.2" cy="2.2" r="2.2" transform="translate(871.854 381.776)"/><circle class="a" cx="2.2" cy="2.2" r="2.2" transform="translate(858.664 381.776)"/><circle class="a" cx="2.2" cy="2.2" r="2.2" transform="translate(845.475 381.776)"/><circle class="a" cx="2.2" cy="2.2" r="2.2" transform="translate(832.285 381.776)"/><circle class="a" cx="2.2" cy="2.2" r="2.2" transform="translate(819.115 381.776)"/><path class="a" d="M805.919,384.045a2.2,2.2,0,1,0,2.2-2.2A2.2,2.2,0,0,0,805.919,384.045Z" transform="translate(0 -0.069)"/><circle class="a" cx="2.2" cy="2.2" r="2.2" transform="translate(792.723 381.776)"/><circle class="a" cx="2.2" cy="2.2" r="2.2" transform="translate(779.528 381.776)"/><path class="a" d="M1030.245,370.849a2.2,2.2,0,1,0,2.2-2.2A2.2,2.2,0,0,0,1030.245,370.849Z" transform="translate(-0.118 -0.062)"/><circle class="a" cx="2.2" cy="2.2" r="2.2" transform="translate(1016.931 368.586)"/><circle class="a" cx="2.2" cy="2.2" r="2.2" transform="translate(1003.735 368.586)"/><circle class="a" cx="2.2" cy="2.2" r="2.2" transform="translate(990.54 368.586)"/><circle class="a" cx="2.2" cy="2.2" r="2.2" transform="translate(977.369 368.586)"/><path class="a" d="M964.267,370.849a2.2,2.2,0,1,0,2.2-2.2A2.2,2.2,0,0,0,964.267,370.849Z" transform="translate(-0.087 -0.062)"/><circle class="a" cx="2.2" cy="2.2" r="2.2" transform="translate(950.99 368.586)"/><circle class="a" cx="2.2" cy="2.2" r="2.2" transform="translate(937.801 368.586)"/><circle class="a" cx="2.2" cy="2.2" r="2.2" transform="translate(924.611 368.586)"/><circle class="a" cx="2.2" cy="2.2" r="2.2" transform="translate(911.422 368.586)"/><circle class="a" cx="2.2" cy="2.2" r="2.2" transform="translate(898.232 368.586)"/><circle class="a" cx="2.2" cy="2.2" r="2.2" transform="translate(885.043 368.586)"/><circle class="a" cx="2.2" cy="2.2" r="2.2" transform="translate(871.854 368.586)"/><circle class="a" cx="2.2" cy="2.2" r="2.2" transform="translate(858.664 368.586)"/><circle class="a" cx="2.2" cy="2.2" r="2.2" transform="translate(845.475 368.586)"/><circle class="a" cx="2.2" cy="2.2" r="2.2" transform="translate(832.285 368.586)"/><circle class="a" cx="2.2" cy="2.2" r="2.2" transform="translate(819.115 368.586)"/><path class="a" d="M805.919,370.849a2.2,2.2,0,1,0,2.2-2.2A2.2,2.2,0,0,0,805.919,370.849Z" transform="translate(0 -0.062)"/><circle class="a" cx="2.2" cy="2.2" r="2.2" transform="translate(792.723 368.586)"/><circle class="a" cx="2.2" cy="2.2" r="2.2" transform="translate(779.528 368.586)"/><path class="a" d="M1030.245,357.653a2.2,2.2,0,1,0,2.2-2.2A2.2,2.2,0,0,0,1030.245,357.653Z" transform="translate(-0.118 -0.056)"/><circle class="a" cx="2.2" cy="2.2" r="2.2" transform="translate(1016.931 355.397)"/><circle class="a" cx="2.2" cy="2.2" r="2.2" transform="translate(1003.735 355.397)"/><circle class="a" cx="2.2" cy="2.2" r="2.2" transform="translate(990.54 355.397)"/><circle class="a" cx="2.2" cy="2.2" r="2.2" transform="translate(977.369 355.397)"/><path class="a" d="M964.267,357.653a2.2,2.2,0,1,0,2.2-2.2A2.2,2.2,0,0,0,964.267,357.653Z" transform="translate(-0.087 -0.056)"/><circle class="a" cx="2.2" cy="2.2" r="2.2" transform="translate(950.99 355.397)"/><circle class="a" cx="2.2" cy="2.2" r="2.2" transform="translate(937.801 355.397)"/><circle class="a" cx="2.2" cy="2.2" r="2.2" transform="translate(924.611 355.397)"/><circle class="a" cx="2.2" cy="2.2" r="2.2" transform="translate(911.422 355.397)"/><circle class="a" cx="2.2" cy="2.2" r="2.2" transform="translate(898.232 355.397)"/><circle class="a" cx="2.2" cy="2.2" r="2.2" transform="translate(885.043 355.397)"/><circle class="a" cx="2.2" cy="2.2" r="2.2" transform="translate(871.854 355.397)"/><circle class="a" cx="2.2" cy="2.2" r="2.2" transform="translate(858.664 355.397)"/><circle class="a" cx="2.2" cy="2.2" r="2.2" transform="translate(845.475 355.397)"/><circle class="a" cx="2.2" cy="2.2" r="2.2" transform="translate(832.285 355.397)"/><circle class="a" cx="2.2" cy="2.2" r="2.2" transform="translate(819.115 355.397)"/><path class="a" d="M805.919,357.653a2.2,2.2,0,1,0,2.2-2.2A2.2,2.2,0,0,0,805.919,357.653Z" transform="translate(0 -0.056)"/><circle class="a" cx="2.2" cy="2.2" r="2.2" transform="translate(792.723 355.397)"/><circle class="a" cx="2.2" cy="2.2" r="2.2" transform="translate(779.528 355.397)"/><path class="a" d="M1030.245,344.458a2.2,2.2,0,1,0,2.2-2.2A2.2,2.2,0,0,0,1030.245,344.458Z" transform="translate(-0.118 -0.05)"/><circle class="a" cx="2.2" cy="2.2" r="2.2" transform="translate(1016.931 342.207)"/><circle class="a" cx="2.2" cy="2.2" r="2.2" transform="translate(1003.735 342.207)"/><circle class="a" cx="2.2" cy="2.2" r="2.2" transform="translate(990.54 342.207)"/><circle class="a" cx="2.2" cy="2.2" r="2.2" transform="translate(977.369 342.207)"/><path class="a" d="M964.267,344.458a2.2,2.2,0,1,0,2.2-2.2A2.2,2.2,0,0,0,964.267,344.458Z" transform="translate(-0.087 -0.05)"/><circle class="a" cx="2.2" cy="2.2" r="2.2" transform="translate(950.99 342.207)"/><circle class="a" cx="2.2" cy="2.2" r="2.2" transform="translate(937.801 342.207)"/><circle class="a" cx="2.2" cy="2.2" r="2.2" transform="translate(924.611 342.207)"/><circle class="a" cx="2.2" cy="2.2" r="2.2" transform="translate(911.422 342.207)"/><circle class="a" cx="2.2" cy="2.2" r="2.2" transform="translate(898.232 342.207)"/><circle class="a" cx="2.2" cy="2.2" r="2.2" transform="translate(885.043 342.207)"/><circle class="a" cx="2.2" cy="2.2" r="2.2" transform="translate(871.854 342.207)"/><circle class="a" cx="2.2" cy="2.2" r="2.2" transform="translate(858.664 342.207)"/><circle class="a" cx="2.2" cy="2.2" r="2.2" transform="translate(845.475 342.207)"/><circle class="a" cx="2.2" cy="2.2" r="2.2" transform="translate(832.285 342.207)"/><circle class="a" cx="2.2" cy="2.2" r="2.2" transform="translate(819.115 342.207)"/><path class="a" d="M805.919,344.458a2.2,2.2,0,1,0,2.2-2.2A2.2,2.2,0,0,0,805.919,344.458Z" transform="translate(0 -0.05)"/><circle class="a" cx="2.2" cy="2.2" r="2.2" transform="translate(792.723 342.207)"/><circle class="a" cx="2.2" cy="2.2" r="2.2" transform="translate(779.528 342.207)"/><path class="a" d="M1030.245,331.262a2.2,2.2,0,1,0,2.2-2.2A2.2,2.2,0,0,0,1030.245,331.262Z" transform="translate(-0.118 -0.044)"/><circle class="a" cx="2.2" cy="2.2" r="2.2" transform="translate(1016.931 329.018)"/><circle class="a" cx="2.2" cy="2.2" r="2.2" transform="translate(1003.735 329.018)"/><circle class="a" cx="2.2" cy="2.2" r="2.2" transform="translate(990.54 329.018)"/><circle class="a" cx="2.2" cy="2.2" r="2.2" transform="translate(977.369 329.018)"/><path class="a" d="M964.267,331.262a2.2,2.2,0,1,0,2.2-2.2A2.2,2.2,0,0,0,964.267,331.262Z" transform="translate(-0.087 -0.044)"/><circle class="a" cx="2.2" cy="2.2" r="2.2" transform="translate(950.99 329.018)"/><circle class="a" cx="2.2" cy="2.2" r="2.2" transform="translate(937.801 329.018)"/><circle class="a" cx="2.2" cy="2.2" r="2.2" transform="translate(924.611 329.018)"/><circle class="a" cx="2.2" cy="2.2" r="2.2" transform="translate(911.422 329.018)"/><circle class="a" cx="2.2" cy="2.2" r="2.2" transform="translate(898.232 329.018)"/><circle class="a" cx="2.2" cy="2.2" r="2.2" transform="translate(885.043 329.018)"/><circle class="a" cx="2.2" cy="2.2" r="2.2" transform="translate(871.854 329.018)"/><circle class="a" cx="2.2" cy="2.2" r="2.2" transform="translate(858.664 329.018)"/><circle class="a" cx="2.2" cy="2.2" r="2.2" transform="translate(845.475 329.018)"/><circle class="a" cx="2.2" cy="2.2" r="2.2" transform="translate(832.285 329.018)"/><circle class="a" cx="2.2" cy="2.2" r="2.2" transform="translate(819.115 329.018)"/><path class="a" d="M805.919,331.262a2.2,2.2,0,1,0,2.2-2.2A2.2,2.2,0,0,0,805.919,331.262Z" transform="translate(0 -0.044)"/><circle class="a" cx="2.2" cy="2.2" r="2.2" transform="translate(792.723 329.018)"/><circle class="a" cx="2.2" cy="2.2" r="2.2" transform="translate(779.528 329.018)"/><path class="a" d="M1030.245,318.066a2.2,2.2,0,1,0,2.2-2.2A2.2,2.2,0,0,0,1030.245,318.066Z" transform="translate(-0.118 -0.037)"/><circle class="a" cx="2.2" cy="2.2" r="2.2" transform="translate(1016.931 315.829)"/><circle class="a" cx="2.2" cy="2.2" r="2.2" transform="translate(1003.735 315.829)"/><circle class="a" cx="2.2" cy="2.2" r="2.2" transform="translate(990.54 315.829)"/><circle class="a" cx="2.2" cy="2.2" r="2.2" transform="translate(977.369 315.829)"/><path class="a" d="M964.267,318.066a2.2,2.2,0,1,0,2.2-2.2A2.2,2.2,0,0,0,964.267,318.066Z" transform="translate(-0.087 -0.037)"/><circle class="a" cx="2.2" cy="2.2" r="2.2" transform="translate(950.99 315.829)"/><circle class="a" cx="2.2" cy="2.2" r="2.2" transform="translate(937.801 315.829)"/><circle class="a" cx="2.2" cy="2.2" r="2.2" transform="translate(924.611 315.829)"/><circle class="a" cx="2.2" cy="2.2" r="2.2" transform="translate(911.422 315.829)"/><circle class="a" cx="2.2" cy="2.2" r="2.2" transform="translate(898.232 315.829)"/><circle class="a" cx="2.2" cy="2.2" r="2.2" transform="translate(885.043 315.829)"/><circle class="a" cx="2.2" cy="2.2" r="2.2" transform="translate(871.854 315.829)"/><circle class="a" cx="2.2" cy="2.2" r="2.2" transform="translate(858.664 315.829)"/><circle class="a" cx="2.2" cy="2.2" r="2.2" transform="translate(845.475 315.829)"/><circle class="a" cx="2.2" cy="2.2" r="2.2" transform="translate(832.285 315.829)"/><circle class="a" cx="2.2" cy="2.2" r="2.2" transform="translate(819.115 315.829)"/><path class="a" d="M805.919,318.066a2.2,2.2,0,1,0,2.2-2.2A2.2,2.2,0,0,0,805.919,318.066Z" transform="translate(0 -0.037)"/><circle class="a" cx="2.2" cy="2.2" r="2.2" transform="translate(792.723 315.829)"/><circle class="a" cx="2.2" cy="2.2" r="2.2" transform="translate(779.528 315.829)"/><circle class="a" cx="2.2" cy="2.2" r="2.2" transform="translate(1016.931 302.639)"/><circle class="a" cx="2.2" cy="2.2" r="2.2" transform="translate(1003.735 302.639)"/><circle class="a" cx="2.2" cy="2.2" r="2.2" transform="translate(990.54 302.639)"/><circle class="a" cx="2.2" cy="2.2" r="2.2" transform="translate(977.369 302.639)"/><path class="a" d="M964.267,304.871a2.2,2.2,0,1,0,2.2-2.2A2.2,2.2,0,0,0,964.267,304.871Z" transform="translate(-0.087 -0.031)"/><circle class="a" cx="2.2" cy="2.2" r="2.2" transform="translate(950.99 302.639)"/><circle class="a" cx="2.2" cy="2.2" r="2.2" transform="translate(937.801 302.639)"/><circle class="a" cx="2.2" cy="2.2" r="2.2" transform="translate(924.611 302.639)"/><circle class="a" cx="2.2" cy="2.2" r="2.2" transform="translate(911.422 302.639)"/><circle class="a" cx="2.2" cy="2.2" r="2.2" transform="translate(898.232 302.639)"/><circle class="a" cx="2.2" cy="2.2" r="2.2" transform="translate(885.043 302.639)"/><circle class="a" cx="2.2" cy="2.2" r="2.2" transform="translate(871.854 302.639)"/><circle class="a" cx="2.2" cy="2.2" r="2.2" transform="translate(858.664 302.639)"/><circle class="a" cx="2.2" cy="2.2" r="2.2" transform="translate(845.475 302.639)"/><circle class="a" cx="2.2" cy="2.2" r="2.2" transform="translate(832.285 302.639)"/><circle class="a" cx="2.2" cy="2.2" r="2.2" transform="translate(819.115 302.639)"/><path class="a" d="M805.919,304.871a2.2,2.2,0,1,0,2.2-2.2A2.2,2.2,0,0,0,805.919,304.871Z" transform="translate(0 -0.031)"/><circle class="a" cx="2.2" cy="2.2" r="2.2" transform="translate(792.723 302.639)"/><circle class="a" cx="2.2" cy="2.2" r="2.2" transform="translate(1003.735 289.45)"/><circle class="a" cx="2.2" cy="2.2" r="2.2" transform="translate(1016.931 289.45)"/><circle class="a" cx="2.2" cy="2.2" r="2.2" transform="translate(990.54 289.45)"/><circle class="a" cx="2.2" cy="2.2" r="2.2" transform="translate(977.369 289.45)"/><path class="a" d="M964.267,291.675a2.2,2.2,0,1,0,2.2-2.2A2.2,2.2,0,0,0,964.267,291.675Z" transform="translate(-0.087 -0.025)"/><circle class="a" cx="2.2" cy="2.2" r="2.2" transform="translate(950.99 289.45)"/><circle class="a" cx="2.2" cy="2.2" r="2.2" transform="translate(937.801 289.45)"/><circle class="a" cx="2.2" cy="2.2" r="2.2" transform="translate(924.611 289.45)"/><circle class="a" cx="2.2" cy="2.2" r="2.2" transform="translate(911.422 289.45)"/><circle class="a" cx="2.2" cy="2.2" r="2.2" transform="translate(898.232 289.45)"/><circle class="a" cx="2.2" cy="2.2" r="2.2" transform="translate(885.043 289.45)"/><circle class="a" cx="2.2" cy="2.2" r="2.2" transform="translate(871.854 289.45)"/><circle class="a" cx="2.2" cy="2.2" r="2.2" transform="translate(858.664 289.45)"/><circle class="a" cx="2.2" cy="2.2" r="2.2" transform="translate(845.475 289.45)"/><circle class="a" cx="2.2" cy="2.2" r="2.2" transform="translate(832.285 289.45)"/><circle class="a" cx="2.2" cy="2.2" r="2.2" transform="translate(819.115 289.45)"/><path class="a" d="M805.919,291.675a2.2,2.2,0,1,0,2.2-2.2A2.2,2.2,0,0,0,805.919,291.675Z" transform="translate(0 -0.025)"/><circle class="a" cx="2.2" cy="2.2" r="2.2" transform="translate(792.723 289.45)"/><circle class="a" cx="2.2" cy="2.2" r="2.2" transform="translate(1003.735 276.279)"/><circle class="a" cx="2.2" cy="2.2" r="2.2" transform="translate(990.54 276.279)"/><circle class="a" cx="2.2" cy="2.2" r="2.2" transform="translate(977.369 276.279)"/><path class="a" d="M964.267,278.479a2.2,2.2,0,1,0,2.2-2.2A2.2,2.2,0,0,0,964.267,278.479Z" transform="translate(-0.087)"/><circle class="a" cx="2.2" cy="2.2" r="2.2" transform="translate(950.99 276.279)"/><circle class="a" cx="2.2" cy="2.2" r="2.2" transform="translate(937.801 276.279)"/><circle class="a" cx="2.2" cy="2.2" r="2.2" transform="translate(924.611 276.279)"/><circle class="a" cx="2.2" cy="2.2" r="2.2" transform="translate(911.422 276.279)"/><circle class="a" cx="2.2" cy="2.2" r="2.2" transform="translate(898.232 276.279)"/><circle class="a" cx="2.2" cy="2.2" r="2.2" transform="translate(885.043 276.279)"/><circle class="a" cx="2.2" cy="2.2" r="2.2" transform="translate(871.854 276.279)"/><circle class="a" cx="2.2" cy="2.2" r="2.2" transform="translate(858.664 276.279)"/><circle class="a" cx="2.2" cy="2.2" r="2.2" transform="translate(845.475 276.279)"/><circle class="a" cx="2.2" cy="2.2" r="2.2" transform="translate(832.285 276.279)"/><circle class="a" cx="2.2" cy="2.2" r="2.2" transform="translate(819.115 276.279)"/><path class="a" d="M805.919,278.479a2.2,2.2,0,1,0,2.2-2.2A2.2,2.2,0,0,0,805.919,278.479Z"/><circle class="a" cx="2.2" cy="2.2" r="2.2" transform="translate(990.54 263.083)"/><circle class="a" cx="2.2" cy="2.2" r="2.2" transform="translate(977.369 263.083)"/><path class="a" d="M964.267,265.284a2.2,2.2,0,1,0,2.2-2.2A2.2,2.2,0,0,0,964.267,265.284Z" transform="translate(-0.087)"/><circle class="a" cx="2.2" cy="2.2" r="2.2" transform="translate(950.99 263.083)"/><circle class="a" cx="2.2" cy="2.2" r="2.2" transform="translate(937.801 263.083)"/><circle class="a" cx="2.2" cy="2.2" r="2.2" transform="translate(924.611 263.083)"/><circle class="a" cx="2.2" cy="2.2" r="2.2" transform="translate(911.422 263.083)"/><circle class="a" cx="2.2" cy="2.2" r="2.2" transform="translate(898.232 263.083)"/><circle class="a" cx="2.2" cy="2.2" r="2.2" transform="translate(885.043 263.083)"/><circle class="a" cx="2.2" cy="2.2" r="2.2" transform="translate(871.854 263.083)"/><circle class="a" cx="2.2" cy="2.2" r="2.2" transform="translate(858.664 263.083)"/><circle class="a" cx="2.2" cy="2.2" r="2.2" transform="translate(845.475 263.083)"/><circle class="a" cx="2.2" cy="2.2" r="2.2" transform="translate(832.285 263.083)"/><circle class="a" cx="2.2" cy="2.2" r="2.2" transform="translate(819.115 263.083)"/><path class="a" d="M964.267,252.088a2.2,2.2,0,1,0,2.2-2.2A2.2,2.2,0,0,0,964.267,252.088Z" transform="translate(-0.087)"/><circle class="a" cx="2.2" cy="2.2" r="2.2" transform="translate(950.99 249.888)"/><circle class="a" cx="2.2" cy="2.2" r="2.2" transform="translate(937.801 249.888)"/><circle class="a" cx="2.2" cy="2.2" r="2.2" transform="translate(924.611 249.888)"/><circle class="a" cx="2.2" cy="2.2" r="2.2" transform="translate(911.422 249.888)"/><circle class="a" cx="2.2" cy="2.2" r="2.2" transform="translate(898.232 249.888)"/><circle class="a" cx="2.2" cy="2.2" r="2.2" transform="translate(885.043 249.888)"/><circle class="a" cx="2.2" cy="2.2" r="2.2" transform="translate(871.854 249.888)"/><circle class="a" cx="2.2" cy="2.2" r="2.2" transform="translate(858.664 249.888)"/><circle class="a" cx="2.2" cy="2.2" r="2.2" transform="translate(845.475 249.888)"/><path class="a" d="M937.875,238.892a2.2,2.2,0,1,0,2.2-2.2A2.2,2.2,0,0,0,937.875,238.892Z" transform="translate(-0.075)"/><path class="a" d="M924.68,238.892a2.2,2.2,0,1,0,2.2-2.2A2.2,2.2,0,0,0,924.68,238.892Z" transform="translate(-0.069)"/><path class="a" d="M911.484,238.892a2.2,2.2,0,1,0,2.2-2.2A2.2,2.2,0,0,0,911.484,238.892Z" transform="translate(-0.062)"/><path class="a" d="M898.289,238.892a2.2,2.2,0,1,0,2.2-2.2A2.2,2.2,0,0,0,898.289,238.892Z" transform="translate(-0.056)"/><path class="a" d="M885.093,238.892a2.2,2.2,0,1,0,2.2-2.2A2.2,2.2,0,0,0,885.093,238.892Z" transform="translate(-0.05)"/><path class="a" d="M871.9,238.892a2.2,2.2,0,1,0,2.2-2.2A2.2,2.2,0,0,0,871.9,238.892Z" transform="translate(-0.044)"/></g></svg>