<svg xmlns="http://www.w3.org/2000/svg" width="1440" height="52" viewBox="0 0 1440 52"><defs><style>.a{fill:#e8f1f9;}</style></defs><path class="a" d="M1183.966,52H961.432a5.627,5.627,0,0,0-1.5-.5c-8.384-.193-16.773-.337-25.157-.5q-10.2-.215-20.4-.5-9.2-.238-18.4-.5-8.2-.233-16.4-.5-7.084-.223-14.157-.5c-9.1-.327-18.2-.639-27.3-.99q-11.533-.446-23.056-.99l-21.805-.99q-9.53-.453-19.059-.99l-18.3-.99c-5.773-.322-11.541-.634-17.308-.99L715.118,41.6q-12.361-.758-24.712-1.486l-17.3-.99-19.3-.99-20.81-.99-23.306-.99-25.307-.99c-5.133-.188-10.265-.332-15.4-.5q-7.571-.245-15.152-.5-8.7-.258-17.4-.5-9.83-.258-19.655-.5-11.7-.262-23.4-.5c-9.8-.178-19.6-.366-29.4-.5-16.138-.193-32.271-.5-48.4-.466-29.89.045-59.774.267-89.659.466-15.467.1-30.935.3-46.4.5q-16.458.193-32.906.5-12.2.208-24.4.5-10.58.223-21.155.5-9.455.233-18.9.5-8.824.238-17.654.5-7.824.233-15.653.5l-29.309.99q-13.006.461-26.053.99l-24.057.99c-6.938.3-13.872.649-20.81.99s-13.867.683-20.805.99c-5.047.208-10.1.327-15.152.5-.5,0-.955.253-1.441.277C7.444,41.714,3.7,41.9,0,42.1V0H1440V42.194q-10.97.743-21.946,1.451c-6.178.381-12.361.674-18.544.99q-9.522.5-19.044.99l-21.045.99-23.046.99-25.542.99-28.544.99c-5.3.178-10.6.332-15.893.5q-8.569.253-17.143.5c-6.713.178-13.427.386-20.145.5-14.207.2-28.419.342-42.631.5a14.65,14.65,0,0,0-1.746.035C1184.461,51.584,1184.221,51.846,1183.966,52Z"/></svg>