<svg xmlns="http://www.w3.org/2000/svg" width="29" height="29" viewBox="0 0 29 29"><defs><style>.a{fill:#1c9dd2;}</style></defs><path class="a" d="M-195.5-190a14.409,14.409,0,0,1-5.644-1.139,14.451,14.451,0,0,1-4.609-3.108,14.451,14.451,0,0,1-3.107-4.609A14.41,14.41,0,0,1-210-204.5a14.409,14.409,0,0,1,1.139-5.644,14.451,14.451,0,0,1,3.107-4.609,14.45,14.45,0,0,1,4.609-3.107A14.409,14.409,0,0,1-195.5-219a14.41,14.41,0,0,1,5.644,1.139,14.451,14.451,0,0,1,4.609,3.107,14.452,14.452,0,0,1,3.108,4.609A14.409,14.409,0,0,1-181-204.5a14.41,14.41,0,0,1-1.139,5.644,14.453,14.453,0,0,1-3.108,4.609,14.452,14.452,0,0,1-4.609,3.108A14.41,14.41,0,0,1-195.5-190Zm-3.873-16.624c-1.148,0-2.106,0-3.016.007a3.03,3.03,0,0,0-1.946.511,2,2,0,0,0-.634,1.6,2.107,2.107,0,0,0,.5,1.591,2.873,2.873,0,0,0,2.114.625h9.425c-.478.452-.924.869-1.355,1.271-.908.848-1.693,1.581-2.466,2.354-1.077,1.077-1.084,1.839-.03,2.915a2.181,2.181,0,0,0,1.488.838,2.1,2.1,0,0,0,1.409-.758c1.418-1.39,2.845-2.819,4.224-4.2l0,0c1.047-1.049,2.13-2.134,3.2-3.195a1.977,1.977,0,0,0,.711-1.375,2.039,2.039,0,0,0-.734-1.412c-2.454-2.429-4.949-4.925-7.413-7.419a1.937,1.937,0,0,0-1.362-.693,2.125,2.125,0,0,0-1.446.732,2.231,2.231,0,0,0-.864,1.508,2.241,2.241,0,0,0,.828,1.517c.786.79,1.61,1.568,2.484,2.391.407.384.828.781,1.271,1.2-1.164,0-2.284,0-3.367,0h-.006C-197.4-206.623-198.385-206.624-199.372-206.624Z" transform="translate(210 219)"/></svg>