<svg xmlns="http://www.w3.org/2000/svg" width="34" height="34" viewBox="0 0 34 34"><defs><style>.a{fill:none;}</style></defs><g transform="translate(-382 -84)"><path d="M24.813,22.532a5.382,5.382,0,1,1,2.366-4.449,5.341,5.341,0,0,1-1.035,3.163L29.6,24.682l-1.313,1.3Zm-6.893-4.449a3.834,3.834,0,1,0,3.834-3.809A3.825,3.825,0,0,0,17.919,18.082ZM-1,23.458c0-2.385,2.464-7.839,6.487-9.6a8.83,8.83,0,0,0,10.563.055,7.254,7.254,0,0,0-1.308,4.169A7.333,7.333,0,0,0,17.1,23.456Zm20.279-5.39a2.424,2.424,0,0,1,.687-1.693,15.293,15.293,0,0,1,2.486,4.033,2.482,2.482,0,0,1-.714.1A2.452,2.452,0,0,1,19.279,18.068ZM3.92,6.843a6.887,6.887,0,1,1,6.886,6.842A6.873,6.873,0,0,1,3.92,6.843Z" transform="translate(386 89)"/><rect class="a" width="34" height="34" transform="translate(382 84)"/></g></svg>